<svg xmlns="http://www.w3.org/2000/svg" width="23.592" height="25.313" viewBox="0 0 23.592 25.313">
  <g id="Group_379" data-name="Group 379" transform="translate(-0.872 0)">
    <path id="Path_116" data-name="Path 116" d="M21.821,17.618c-1.529-1.308-3.081-2.1-4.592-.794l-.9.789c-.66.573-1.887,3.25-6.63-2.207s-1.92-6.3-1.26-6.867l.907-.79c1.5-1.309.935-2.957-.148-4.653L8.543,2.07C7.454.377,6.269-.734,4.762.573l-.814.711A7.641,7.641,0,0,0,.97,6.341C.426,9.935,2.14,14.05,6.067,18.566s7.762,6.787,11.4,6.747a7.662,7.662,0,0,0,5.419-2.244l.817-.712c1.5-1.306.569-2.636-.961-3.946l-.92-.791Z" transform="translate(0)" fill="#c9282d"/>
  </g>
</svg>
