<svg xmlns="http://www.w3.org/2000/svg" width="54.979" height="50.745" viewBox="0 0 54.979 50.745">
  <g id="download" transform="translate(-311.034 -325.2)">
    <path id="Path_8991" data-name="Path 8991" d="M366.013,573.378a7.641,7.641,0,0,1-.579,1.258,2.969,2.969,0,0,1-2.5,1.345c-.145,0-.289.014-.434.014q-23.977,0-47.939.014a3.2,3.2,0,0,1-3.168-1.765,3.553,3.553,0,0,1-.333-1.49q-.043-5.208-.014-10.415a3.087,3.087,0,0,1,3.211-3.226q7.486-.022,14.972,0a1,1,0,0,1,.637.289c1.273,1.259,2.531,2.531,3.79,3.8,2.98,2.994,6.727,3.009,9.706.029,1.259-1.258,2.517-2.546,3.8-3.79a1.346,1.346,0,0,1,.825-.333q7.03-.022,14.061-.014c2.372,0,3.052.448,3.949,2.589Q366.02,567.526,366.013,573.378Zm-6.278-5.83a2.106,2.106,0,1,0,2.04,2.126A2.122,2.122,0,0,0,359.735,567.548Zm-8.506,4.209a2.166,2.166,0,0,0,2.1-2.141,2.143,2.143,0,0,0-2.155-2.069,2.105,2.105,0,0,0,.058,4.209Z" transform="translate(0 -200.065)" fill="rgba(145,41,140,0.75)"/>
    <path id="Path_8992" data-name="Path 8992" d="M407.1,342.081c1.577,0,3.067-.014,4.571,0,1.418.014,2.821.014,4.238.072a1.789,1.789,0,0,1,1.606,1.3,1.834,1.834,0,0,1-.318,2.054l-.434.477-14.234,14.234c-1.244,1.244-2.3,1.244-3.559-.014q-7.161-7.16-14.306-14.306a2.055,2.055,0,0,1-.448-2.879,2.122,2.122,0,0,1,1.982-.926h8.2V327.674a2.171,2.171,0,0,1,2.459-2.474h7.783a2.163,2.163,0,0,1,2.445,2.445v13.742C407.1,341.589,407.1,341.792,407.1,342.081Z" transform="translate(-62.253)" fill="rgba(145,41,140,0.75)"/>
    <path id="Path_8993" data-name="Path 8993" d="M634.776,617.5a2.122,2.122,0,0,1,2.04,2.126,2.113,2.113,0,1,1-2.04-2.126Z" transform="translate(-275.041 -250.013)" fill="rgba(145,41,140,0.75)"/>
    <path id="Path_8994" data-name="Path 8994" d="M576.326,621.62a2.112,2.112,0,1,1,2.083-2.155A2.136,2.136,0,0,1,576.326,621.62Z" transform="translate(-225.097 -249.928)" fill="rgba(145,41,140,0.75)"/>
  </g>
</svg>
