<svg id="Paper_clip" data-name="Paper clip" xmlns="http://www.w3.org/2000/svg" width="18.253" height="19.403" viewBox="0 0 18.253 19.403">
  <path id="Path_13805" data-name="Path 13805" d="M117.4,51.866a4.865,4.865,0,0,1,1.458-3.568c3.31-3.325,6.62-6.666,9.931-9.976a3.646,3.646,0,1,1,5.193,5.117c-2.748,2.764-5.512,5.512-8.26,8.276a2.428,2.428,0,0,1-3.538-3.325c.471-.5.972-.987,1.458-1.473l2.6-2.6a.8.8,0,0,1,1.23,1.033c-.061.061-.121.137-.182.2l-3.8,3.8a.9.9,0,0,0-.3.8.818.818,0,0,0,1.427.349l8.169-8.169a2.027,2.027,0,0,0-2.7-3.022c-.061.061-.137.121-.2.182l-9.855,9.9a3.236,3.236,0,0,0,4.343,4.8c.121-.121.243-.228.364-.349l9.43-9.475a.881.881,0,0,1,.85-.319.833.833,0,0,1,.319,1.443q-4.783,4.829-9.581,9.627a4.856,4.856,0,0,1-8.306-2.672A4.552,4.552,0,0,1,117.4,51.866Z" transform="translate(-117.4 -37.198)" fill="rgba(145,41,140,0.75)"/>
</svg>
