<svg xmlns="http://www.w3.org/2000/svg" width="20.802" height="20.85" viewBox="0 0 20.802 20.85">
  <g id="Captcha_Refresh" data-name="Captcha Refresh" transform="translate(-111.093 -34.091)">
    <path id="Path_13806" data-name="Path 13806" d="M128.669,36.88c.176-.2.351-.395.5-.57a.6.6,0,0,1,.636-.2.61.61,0,0,1,.439.527c.285,1.4.57,2.786.834,4.19a.667.667,0,0,1-.154.636.581.581,0,0,1-.614.154c-1.272-.417-2.523-.834-3.8-1.229a.625.625,0,0,1-.263-1.141c.2-.2.417-.395.68-.614-.483-.329-.878-.658-1.316-.921a7.761,7.761,0,0,0-6.648-.768A7.962,7.962,0,0,0,115.4,39.4a7.764,7.764,0,0,0-1.8,4.059,8.306,8.306,0,0,0-.022,1.953.616.616,0,0,1-.812.724c-.373-.066-.724-.154-1.1-.219a.6.6,0,0,1-.548-.636,10.2,10.2,0,0,1,2.457-7.481,9.967,9.967,0,0,1,5.858-3.488,10.279,10.279,0,0,1,9.061,2.413A1.926,1.926,0,0,0,128.669,36.88Z" fill="rgba(145,41,140,0.75)"/>
    <path id="Path_13807" data-name="Path 13807" d="M117.295,83.327c-.2.2-.373.395-.549.57a.6.6,0,0,1-1.053-.307c-.285-1.4-.57-2.808-.856-4.234-.11-.592.307-.921.878-.724,1.229.417,2.457.812,3.686,1.207.373.132.57.351.5.68a.955.955,0,0,1-.219.417c-.2.219-.417.417-.614.636a.17.17,0,0,1-.022.066c.395.285.768.592,1.185.856a7.5,7.5,0,0,0,3.335,1.163,7.74,7.74,0,0,0,4.037-.636,7.89,7.89,0,0,0,3.774-3.445,7.667,7.667,0,0,0,.987-4.454c-.022-.132-.022-.285-.044-.417a.582.582,0,0,1,.68-.636c.439.066.9.154,1.338.263a.547.547,0,0,1,.439.57,10.249,10.249,0,0,1-3.905,8.951,9.827,9.827,0,0,1-5.463,2.238,10.351,10.351,0,0,1-7.591-2.282A6.253,6.253,0,0,0,117.295,83.327Z" transform="translate(-2.909 -31.199)" fill="rgba(145,41,140,0.75)"/>
  </g>
</svg>
