<svg xmlns="http://www.w3.org/2000/svg" width="57.633" height="50.417" viewBox="0 0 57.633 50.417">
  <g id="Register" transform="translate(-390.4 -386.5)">
    <path id="Path_8995" data-name="Path 8995" d="M412.007,536.073H392.538a1.87,1.87,0,0,1-2.138-2.138v-7.923a11.437,11.437,0,0,1,11.5-11.546c6.73,0,13.459-.023,20.189,0a11.39,11.39,0,0,1,11.524,11.524v8.035a1.832,1.832,0,0,1-2.048,2.048Z" transform="translate(0 -99.156)" fill="rgba(145,41,140,0.75)"/>
    <path id="Path_8996" data-name="Path 8996" d="M445.1,410.493a12,12,0,1,1,12.042-11.929A12.022,12.022,0,0,1,445.1,410.493Z" transform="translate(-33.089)" fill="rgba(145,41,140,0.75)"/>
    <path id="Path_8997" data-name="Path 8997" d="M551.782,451.816h-.72c-2.949,0-5.875.023-8.823,0a2.378,2.378,0,0,1-2.251-3.331,2.354,2.354,0,0,1,2.318-1.463h9.431c.023-.248.023-.45.023-.63v-4.5a1.842,1.842,0,0,1,1.1-1.913,1.9,1.9,0,0,1,2.161.518c2.611,2.453,5.244,4.884,7.855,7.315,1.215,1.125,1.215,2.116.022,3.241-2.633,2.453-5.267,4.884-7.9,7.36a1.852,1.852,0,0,1-3.241-1.4v-4.5A6.768,6.768,0,0,0,551.782,451.816Z" transform="translate(-115.759 -41.323)" fill="rgba(145,41,140,0.75)"/>
  </g>
</svg>
