<svg xmlns="http://www.w3.org/2000/svg" width="16.159" height="10.772" viewBox="0 0 16.159 10.772">
  <g id="show" transform="translate(-1849 -4889.263)">
    <path id="Icon_awesome-eye" data-name="Icon awesome-eye" d="M16.061,9.477A9,9,0,0,0,8.08,4.5,9,9,0,0,0,.1,9.477a.908.908,0,0,0,0,.819A9,9,0,0,0,8.08,15.273,9,9,0,0,0,16.061,10.3.908.908,0,0,0,16.061,9.477ZM8.08,13.926a4.04,4.04,0,1,1,4.04-4.04A4.04,4.04,0,0,1,8.08,13.926Zm0-6.733a2.674,2.674,0,0,0-.71.106A1.342,1.342,0,0,1,5.493,9.176,2.687,2.687,0,1,0,8.08,7.193Z" transform="translate(1849 4884.763)" fill="rgba(145,41,140,0.75)"/>
  </g>
</svg>
