<svg xmlns="http://www.w3.org/2000/svg" width="24" height="27.307" viewBox="0 0 24 27.307">
  <g id="Group_290" data-name="Group 290" transform="translate(-31)">
    <path id="Path_86" data-name="Path 86" d="M32.664,8l1.417,17.106a2.413,2.413,0,0,0,2.391,2.2H49.528a2.413,2.413,0,0,0,2.391-2.2L53.336,8ZM39,24.107a.8.8,0,0,1-.8-.75L37.4,10.45A.8.8,0,0,1,38.15,9.6.788.788,0,0,1,39,10.35l.8,12.907A.8.8,0,0,1,39,24.107Zm4.8-.8a.8.8,0,1,1-1.6,0V10.4a.8.8,0,1,1,1.6,0ZM48.6,10.45l-.8,12.907a.8.8,0,0,1-1.6-.1L47,10.35A.813.813,0,0,1,47.85,9.6a.8.8,0,0,1,.748.848ZM53.4,3.2H48.6V2.4A2.4,2.4,0,0,0,46.2,0H39.8a2.4,2.4,0,0,0-2.4,2.4v.8H32.6a1.6,1.6,0,0,0,0,3.2H53.4a1.6,1.6,0,0,0,0-3.2ZM47,3.2H39V2.4a.8.8,0,0,1,.8-.8h6.4a.8.8,0,0,1,.8.8Z" transform="translate(0)" fill="#ce0000"/>
  </g>
</svg>
