<svg xmlns="http://www.w3.org/2000/svg" width="28.444" height="20" viewBox="0 0 28.444 20">
  <g id="Group_380" data-name="Group 380" transform="translate(0 -76)">
    <path id="Path_119" data-name="Path 119" d="M43.2,277.251l-2.382,2.39a2.637,2.637,0,0,1-3.653,0l-2.382-2.39-8.556,8.584a2.475,2.475,0,0,0,1.043.235H50.713a2.474,2.474,0,0,0,1.043-.235Z" transform="translate(-24.769 -190.07)" fill="#c9282d"/>
    <path id="Path_120" data-name="Path 120" d="M25.944,76H2.5a2.475,2.475,0,0,0-1.043.235L10.6,85.409h0l2.973,2.983a1,1,0,0,0,1.293,0l2.972-2.982v0h0l9.143-9.174A2.473,2.473,0,0,0,25.944,76ZM.266,77.4A2.469,2.469,0,0,0,0,78.5v15a2.469,2.469,0,0,0,.266,1.1L8.837,86Zm27.913,0L19.607,86l8.571,8.6a2.469,2.469,0,0,0,.266-1.1v-15A2.47,2.47,0,0,0,28.179,77.4Z" transform="translate(0 0)" fill="#c9282d"/>
  </g>
</svg>
