<svg id="Group_2557" data-name="Group 2557" xmlns="http://www.w3.org/2000/svg" width="23.487" height="23.081" viewBox="0 0 23.487 23.081">
  <path id="Path_8806" data-name="Path 8806" d="M10.865,24.144l2.518,1.8a.45.45,0,0,0,.628-.106l1.8-2.518a.452.452,0,0,0-.736-.524L13.91,24.427A9.411,9.411,0,1,1,31.833,25.8a.451.451,0,0,0,.837.333,10.312,10.312,0,1,0-19.649-1.557l-1.634-1.166a.45.45,0,1,0-.522.731Z" transform="translate(-10.654 -12.021)" fill="#505050"/>
  <path id="Path_8807" data-name="Path 8807" d="M34.07,43.345c-.9-1.064-2.376-.576-3.173-.315-.5.167-1.713.675-2.9,1.179a1.859,1.859,0,0,0-.14-1.125c-.644-1.47-2.232-1.188-3.394-.981a6.213,6.213,0,0,1-1.089.137,4.546,4.546,0,0,1-1.8-.394,5.55,5.55,0,0,0-2.334-.45,11.381,11.381,0,0,0-4.447.995l-.252.1a21.289,21.289,0,0,1-2.991,1.022.45.45,0,0,0-.349.333,5.949,5.949,0,0,0,.632,3.7,4.9,4.9,0,0,0,2.557,2.741.45.45,0,0,0,.43-.07,10.519,10.519,0,0,1,1-.7c.286-.173.981-.284,2.683.189a20.731,20.731,0,0,0,4.821.691,5.626,5.626,0,0,0,1.872-.257c1.776-.675,6.1-2.926,7.8-3.848.9-.491,1.391-1.019,1.5-1.618A1.575,1.575,0,0,0,34.07,43.345ZM33.6,44.509c-.056.3-.43.657-1.049.995-1.427.781-5.914,3.133-7.681,3.8-1.24.464-4.361.032-6.135-.45a8.494,8.494,0,0,0-2.185-.383,2.282,2.282,0,0,0-1.209.279c-.3.185-.65.437-.869.6a4.554,4.554,0,0,1-1.832-2.187,5.651,5.651,0,0,1-.6-2.84,27.331,27.331,0,0,0,2.833-1l.259-.106a10.42,10.42,0,0,1,4.123-.923,4.613,4.613,0,0,1,2,.4,5.349,5.349,0,0,0,2.1.45,7.24,7.24,0,0,0,1.263-.151c1.24-.225,2.077-.308,2.41.45a.95.95,0,0,1,.034.754,1.74,1.74,0,0,1-.959.824c-.45.189-.788.335-.936.394a4.566,4.566,0,0,1-2.57.117l-.437-.068a.454.454,0,0,0-.122.9c.137.018.277.041.416.063a5.4,5.4,0,0,0,3.04-.169c.137-.054.412-.169.776-.326.068-.027.133-.054.2-.083l.581-.248c1.465-.63,3.472-1.494,4.132-1.71,1.046-.344,1.78-.45,2.2.041C33.653,44.246,33.615,44.444,33.6,44.509ZM23.024,32.21v.6a1.971,1.971,0,0,0-.45.162,1.42,1.42,0,0,0-.781,1.231c-.032.988.857,1.319,1.506,1.56.756.281.986.425.952.785a.621.621,0,0,1-.414.551,1.544,1.544,0,0,1-1.335-.113.451.451,0,1,0-.558.709,2.1,2.1,0,0,0,1.08.389v.538a.45.45,0,1,0,.9,0v-.605a2.21,2.21,0,0,0,.277-.09,1.519,1.519,0,0,0,.956-1.292c.108-1.107-.88-1.474-1.533-1.717-.7-.259-.932-.394-.923-.686a.527.527,0,0,1,.306-.466,1.366,1.366,0,0,1,1.292.11.45.45,0,1,0,.477-.763,2.385,2.385,0,0,0-.853-.326V32.21a.45.45,0,0,0-.9,0Z" transform="translate(-11.019 -27.318)" fill="#505050"/>
  <path id="Path_8808" data-name="Path 8808" d="M42,29.4A5.4,5.4,0,1,0,47.4,24,5.4,5.4,0,0,0,42,29.4Zm9.9,0a4.5,4.5,0,1,1-4.5-4.5,4.5,4.5,0,0,1,4.5,4.5Z" transform="translate(-34.946 -21.304)" fill="#505050"/>
</svg>
