<svg xmlns="http://www.w3.org/2000/svg" width="26.565" height="22.838" viewBox="0 0 26.565 22.838">
  <g id="Group_2573" data-name="Group 2573" transform="translate(0 0)">
    <path id="Path_8810" data-name="Path 8810" d="M26.528,41.511h0L21.512,28.917a.521.521,0,0,0-.677-.292h0L.487,36.728a.511.511,0,0,0-.209.166A.516.516,0,0,0,0,37.346V50.9a.521.521,0,0,0,.521.521h21.9a.521.521,0,0,0,.521-.521V43.5l3.292-1.311A.521.521,0,0,0,26.528,41.511ZM21.9,50.383H1.043V37.868H21.9ZM8.7,36.827l8.732-3.479a4.149,4.149,0,0,0,2.99,1.289l.871,2.19Zm14.244,5.552V37.346a.521.521,0,0,0-.521-.521h-.008L21.31,34.049a.432.432,0,0,0-.043-.066.515.515,0,0,0-.545-.4A3.118,3.118,0,0,1,17.988,32.4a.517.517,0,0,0-.669-.117.586.586,0,0,0-.074.014L6.586,36.546a.515.515,0,0,0-.286.278H3.062l17.674-7.037,4.63,11.626Z" transform="translate(0 -28.588)" fill="#505050"/>
    <path id="Path_8811" data-name="Path 8811" d="M32.372,194.9a3.118,3.118,0,0,1,2.105,2.1.522.522,0,0,0,.5.372.482.482,0,0,0,.08-.012.489.489,0,0,0,.071.015H47.644a.449.449,0,0,0,.064-.013.486.486,0,0,0,.587-.357v0A3.118,3.118,0,0,1,50.4,194.9a.515.515,0,0,0,.358-.574.526.526,0,0,0,.015-.077v-4.172a.471.471,0,0,0-.016-.077.514.514,0,0,0-.358-.574,3.115,3.115,0,0,1-2.1-2.106.515.515,0,0,0-.578-.358.5.5,0,0,0-.074-.015H35.129a.49.49,0,0,0-.078.016.515.515,0,0,0-.574.358,3.118,3.118,0,0,1-2.105,2.1.515.515,0,0,0-.358.574.527.527,0,0,0-.015.077v4.172a.481.481,0,0,0,.015.072A.516.516,0,0,0,32.372,194.9Zm.671-4.611a4.138,4.138,0,0,0,2.3-2.3H47.432a4.139,4.139,0,0,0,2.3,2.3v3.748a4.143,4.143,0,0,0-2.3,2.3H35.341a4.143,4.143,0,0,0-2.3-2.3Z" transform="translate(-29.914 -176.623)" fill="#505050"/>
    <path id="Path_8812" data-name="Path 8812" d="M82.518,225.2a3.129,3.129,0,1,0-3.129-3.129A3.129,3.129,0,0,0,82.518,225.2Zm0-5.215a2.086,2.086,0,1,1-2.086,2.086A2.086,2.086,0,0,1,82.518,219.988Zm-5.736,2.868a.782.782,0,1,0-.782-.782A.782.782,0,0,0,76.782,222.856Zm0-1.043a.261.261,0,1,1-.261.261A.261.261,0,0,1,76.782,221.813Zm11.472,1.043a.782.782,0,1,0-.782-.782A.782.782,0,0,0,88.255,222.856Zm0-1.043a.261.261,0,1,1-.261.261A.261.261,0,0,1,88.255,221.813Z" transform="translate(-71.046 -206.537)" fill="#505050"/>
  </g>
</svg>
