<svg xmlns="http://www.w3.org/2000/svg" width="23.667" height="21.232" viewBox="0 0 23.667 21.232">
  <g id="Group_2575" data-name="Group 2575" transform="translate(0 0)">
    <path id="Path_8815" data-name="Path 8815" d="M29.94,33.512H12.807a1.728,1.728,0,0,0-1.726,1.727v1.354H9.727A1.729,1.729,0,0,0,8,38.32V48.851a1.729,1.729,0,0,0,1.727,1.727h.72v3.832a.334.334,0,0,0,.549.256l4.876-4.088H26.859a1.732,1.732,0,0,0,.517-.08l1.3,1.087a.334.334,0,0,0,.549-.256V47.5h.72a1.729,1.729,0,0,0,1.727-1.727V35.239A1.729,1.729,0,0,0,29.94,33.512Zm-14.19,16.4a.334.334,0,0,0-.215.078l-4.421,3.706v-3.45a.334.334,0,0,0-.334-.334H9.727a1.06,1.06,0,0,1-1.059-1.059V38.32a1.06,1.06,0,0,1,1.059-1.059h1.354V45.77A1.728,1.728,0,0,0,12.807,47.5H23.8l2.879,2.413H15.75ZM31,45.77a1.06,1.06,0,0,1-1.059,1.059H28.886a.334.334,0,0,0-.334.334v3.45l-4.421-3.706a.334.334,0,0,0-.215-.078H12.807a1.06,1.06,0,0,1-1.058-1.059V35.239a1.06,1.06,0,0,1,1.058-1.059H29.94A1.06,1.06,0,0,1,31,35.239ZM19.913,39.08a2.586,2.586,0,0,1-1.459,2.291,1.211,1.211,0,0,0-.7.978v.414a.334.334,0,1,1-.668,0V42.35a1.811,1.811,0,0,1,1.061-1.57,1.929,1.929,0,0,0,1.1-1.7,1.86,1.86,0,0,0-3.72,0,.334.334,0,1,1-.668,0,2.528,2.528,0,1,1,5.056,0Zm-2.161,4.972v.07a.334.334,0,0,1-.668,0v-.07a.334.334,0,0,1,.668,0Zm10.138-7.166a.334.334,0,0,1-.334.334H21.681a.334.334,0,0,1,0-.668h5.874A.334.334,0,0,1,27.889,36.887Zm0,2.389a.334.334,0,0,1-.334.334H21.681a.334.334,0,0,1,0-.668h5.874a.334.334,0,0,1,.334.334Zm0,2.389a.334.334,0,0,1-.334.334H21.681a.334.334,0,1,1,0-.668h5.874A.334.334,0,0,1,27.889,41.664Zm0,2.389a.334.334,0,0,1-.334.334H21.681a.334.334,0,0,1,0-.668h5.874A.334.334,0,0,1,27.889,44.053Z" transform="translate(-8 -33.512)" fill="#505050"/>
  </g>
</svg>
