<svg xmlns="http://www.w3.org/2000/svg" width="16.643" height="16.588" viewBox="0 0 16.643 16.588">
  <g id="Group_20" data-name="Group 20" transform="translate(0 0)">
    <g id="Group_17" data-name="Group 17">
      <g id="Group_16" data-name="Group 16">
        <path id="Path_6" data-name="Path 6" d="M116.04,141.1h-6.22a.692.692,0,0,1-.691-.691V127.964a.692.692,0,0,1,.691-.691h6.22a.691.691,0,0,0,0-1.382h-6.22a2.076,2.076,0,0,0-2.073,2.073v12.441a2.076,2.076,0,0,0,2.073,2.073h6.22a.691.691,0,1,0,0-1.382Z" transform="translate(-107.746 -125.891)" fill="#505050"/>
      </g>
    </g>
    <g id="Group_19" data-name="Group 19" transform="translate(5.529 3.456)">
      <g id="Group_18" data-name="Group 18">
        <path id="Path_7" data-name="Path 7" d="M125.541,134.542l-4.2-4.147a.691.691,0,1,0-.97.984l3,2.964h-8.047a.691.691,0,1,0,0,1.382h8.047l-3,2.964a.691.691,0,1,0,.97.984l4.2-4.147a.69.69,0,0,0,0-.984Z" transform="translate(-114.634 -130.196)" fill="#505050"/>
      </g>
    </g>
  </g>
</svg>
