<svg xmlns="http://www.w3.org/2000/svg" width="62.959" height="60.422" viewBox="0 0 62.959 60.422">
  <g id="all_setup_thumb" data-name="all setup thumb" transform="translate(-363.4 -350.7)">
    <path id="Path_9003" data-name="Path 9003" d="M465.812,370.785h4.2c2.087,0,4.174.025,6.261,0a7.416,7.416,0,0,1,7.268,4.322c1.473,2.971.909,5.893-.958,8.545a1.25,1.25,0,0,0-.246,1.228,8.259,8.259,0,0,1-1.031,7.317,1.293,1.293,0,0,0-.147.859,8.48,8.48,0,0,1-1.94,7.489,1.722,1.722,0,0,0-.27,1.007,9.325,9.325,0,0,1-1.621,5.967,7.985,7.985,0,0,1-5.819,3.29,40.886,40.886,0,0,1-14.855-.81c-3.094-.835-6.139-1.866-9.208-2.775-1.6-.467-3.217-.884-4.862-1.228a2.6,2.6,0,0,1-2.284-2.676V378.471a2.6,2.6,0,0,1,2.21-2.676,3.49,3.49,0,0,0,1.6-.859c1.67-1.792,3.315-3.609,4.911-5.476,1.522-1.743,2.922-3.585,4.444-5.3a11.571,11.571,0,0,0,2.333-5.255,52.678,52.678,0,0,1,1.375-5.132,9.627,9.627,0,0,1,1.326-2.185,2.03,2.03,0,0,1,1.694-.884c2.308,0,4.543.319,6.384,1.891a7.606,7.606,0,0,1,2.382,4.592,16.4,16.4,0,0,1-2.087,11.393C466.475,369.238,466.18,370,465.812,370.785Z" transform="translate(-58.018)" fill="rgba(145,41,140,0.75)"/>
    <path id="Path_9004" data-name="Path 9004" d="M379.753,468.025v12.2a2.587,2.587,0,0,1-2.9,2.873H366.3a2.6,2.6,0,0,1-2.9-2.873V455.8a2.6,2.6,0,0,1,2.873-2.9H376.88a2.565,2.565,0,0,1,2.848,2.848C379.753,459.849,379.753,463.949,379.753,468.025Zm-8.79,5.034a2.494,2.494,0,0,0-2.5,2.48,2.465,2.465,0,0,0,2.529,2.529,2.531,2.531,0,0,0,2.5-2.5A2.569,2.569,0,0,0,370.963,473.059Z" transform="translate(0 -77.106)" fill="rgba(145,41,140,0.75)"/>
  </g>
</svg>
