<svg xmlns="http://www.w3.org/2000/svg" width="18.539" height="18.942" viewBox="0 0 18.539 18.942">
  <g id="calender" transform="translate(0)">
    <path id="Path_13796" data-name="Path 13796" d="M80.16,48.1v2.081a3.156,3.156,0,0,0,.025.483,1.86,1.86,0,0,0,1.71,1.6,12.964,12.964,0,0,0,1.388,0,1.888,1.888,0,0,0,1.834-1.92v-2.18a.094.094,0,0,1,.012-.05h5.315v2.193a1.889,1.889,0,0,0,1.908,1.957q.576.019,1.152,0a1.869,1.869,0,0,0,1.9-1.945V48.125a1.635,1.635,0,0,1,1.524,1.09,2.2,2.2,0,0,1,.111.694c.012,4.41,0,8.821,0,13.231a1.676,1.676,0,0,1-1.276,1.747,2.174,2.174,0,0,1-.57.062H80.346A1.714,1.714,0,0,1,78.5,63.115V49.884a1.686,1.686,0,0,1,1.251-1.71C79.888,48.15,80.011,48.137,80.16,48.1Zm7.582,15.04H94a.756.756,0,0,0,.855-.855v-6.7A.756.756,0,0,0,94,54.728H81.548a.755.755,0,0,0-.855.867v6.677a.755.755,0,0,0,.867.855C83.616,63.14,85.685,63.14,87.742,63.14Z" transform="translate(-78.5 -46.006)" fill="rgba(145,41,140,0.75)"/>
    <path id="Path_13797" data-name="Path 13797" d="M104.365,33.727V35.5a.649.649,0,0,1-.731.731h-1.016a.649.649,0,0,1-.719-.706V31.956a.66.66,0,0,1,.756-.756h1.016a.644.644,0,0,1,.681.681C104.365,32.5,104.353,33.12,104.365,33.727Z" transform="translate(-99.001 -31.2)" fill="rgba(145,41,140,0.75)"/>
    <path id="Path_13798" data-name="Path 13798" d="M184.861,33.715V31.956a.665.665,0,0,1,.756-.756h1a.651.651,0,0,1,.706.706v3.642a.65.65,0,0,1-.694.694h-1.078a.638.638,0,0,1-.694-.694C184.849,34.929,184.861,34.322,184.861,33.715Z" transform="translate(-171.68 -31.2)" fill="rgba(145,41,140,0.75)"/>
    <path id="Path_13799" data-name="Path 13799" d="M145.177,112.1h.706a.446.446,0,0,1,.471.458c.012.471.012.954,0,1.425a.427.427,0,0,1-.458.471c-.483.012-.966.012-1.437,0a.436.436,0,0,1-.458-.483v-1.388a.443.443,0,0,1,.483-.483Z" transform="translate(-135.886 -102.078)" fill="rgba(145,41,140,0.75)"/>
    <path id="Path_13800" data-name="Path 13800" d="M145.1,144.688h-.681a.443.443,0,0,1-.483-.483c-.012-.471-.012-.942,0-1.4a.433.433,0,0,1,.458-.471c.483-.012.966-.012,1.437,0a.439.439,0,0,1,.458.471c.012.471.012.954,0,1.425a.427.427,0,0,1-.471.458C145.582,144.7,145.334,144.688,145.1,144.688Z" transform="translate(-135.82 -128.558)" fill="rgba(145,41,140,0.75)"/>
    <path id="Path_13801" data-name="Path 13801" d="M113.612,113.326v-.706a.423.423,0,0,1,.458-.458c.483,0,.966-.012,1.437,0a.4.4,0,0,1,.446.421c.012.508.012,1.016,0,1.511a.407.407,0,0,1-.434.421c-.5.012-.991.012-1.474,0-.3-.012-.434-.186-.446-.483C113.6,113.784,113.612,113.549,113.612,113.326Z" transform="translate(-109.252 -102.126)" fill="rgba(145,41,140,0.75)"/>
    <path id="Path_13802" data-name="Path 13802" d="M176.576,113.189v.706a.418.418,0,0,1-.446.471c-.483.012-.966.012-1.437,0a.427.427,0,0,1-.458-.471c-.012-.471-.012-.954,0-1.425a.44.44,0,0,1,.483-.471H176.1a.431.431,0,0,1,.483.5C176.588,112.743,176.576,112.966,176.576,113.189Z" transform="translate(-162.366 -101.99)" fill="rgba(145,41,140,0.75)"/>
    <path id="Path_13803" data-name="Path 13803" d="M113.661,143.424v-.706a.439.439,0,0,1,.471-.483c.471-.012.954-.012,1.425,0a.427.427,0,0,1,.458.471c.012.471.012.954,0,1.425a.438.438,0,0,1-.5.471h-1.363a.45.45,0,0,1-.5-.5C113.649,143.882,113.661,143.659,113.661,143.424Z" transform="translate(-109.3 -128.471)" fill="rgba(145,41,140,0.75)"/>
    <path id="Path_13804" data-name="Path 13804" d="M176.488,143.611v.706a.439.439,0,0,1-.458.471c-.471.012-.954.012-1.425,0a.427.427,0,0,1-.471-.434c-.012-.5-.012-.991,0-1.474a.43.43,0,0,1,.471-.446c.471-.012.954-.012,1.425,0a.436.436,0,0,1,.458.483C176.5,143.14,176.488,143.376,176.488,143.611Z" transform="translate(-162.278 -128.646)" fill="rgba(145,41,140,0.75)"/>
  </g>
</svg>
