<svg xmlns="http://www.w3.org/2000/svg" width="14.603" height="14.603" viewBox="0 0 14.603 14.603">
  <g id="Current_location" data-name="Current location" transform="translate(0 0)">
    <path id="Path_11141" data-name="Path 11141" d="M448.354,455.5a3.215,3.215,0,1,1,3.139-3.3A3.222,3.222,0,0,1,448.354,455.5Z" transform="translate(-440.981 -444.987)" fill="#91298c"/>
    <path id="Path_11142" data-name="Path 11142" d="M520,528.8v-1.3c.132-.042.271-.084.4-.133a5.063,5.063,0,0,0,3.229-3.416.174.174,0,0,1,.2-.151c.38.006.759,0,1.145,0A6.358,6.358,0,0,1,520,528.8Z" transform="translate(-511.163 -514.975)" fill="#91298c"/>
    <path id="Path_11143" data-name="Path 11143" d="M520,399.683V398.4a6.359,6.359,0,0,1,4.994,4.97.4.4,0,0,1-.084.012H523.8c-.072,0-.115-.012-.139-.1a5.1,5.1,0,0,0-3.621-3.591C520.024,399.7,520.018,399.689,520,399.683Z" transform="translate(-511.163 -397.611)" fill="#91298c"/>
    <path id="Path_11144" data-name="Path 11144" d="M394.1,403.57a6.4,6.4,0,0,1,5-4.97v.627c0,.169-.006.343,0,.512.006.1-.03.145-.132.175a5.1,5.1,0,0,0-3.416,3.175c-.048.127-.078.259-.127.386-.012.036-.06.09-.09.09C394.931,403.576,394.522,403.57,394.1,403.57Z" transform="translate(-393.329 -397.799)" fill="#91298c"/>
    <path id="Path_11145" data-name="Path 11145" d="M399.57,528.649a6.386,6.386,0,0,1-4.97-4.994h.813c.151,0,.331-.048.44.024s.1.259.151.392a5.1,5.1,0,0,0,3.428,3.235c.1.03.139.06.139.169Z" transform="translate(-393.799 -514.823)" fill="#91298c"/>
    <path id="Path_11146" data-name="Path 11146" d="M488,385.3h1.259v2.554H488Z" transform="translate(-481.331 -385.3)" fill="#91298c"/>
    <path id="Path_11147" data-name="Path 11147" d="M381.3,493.359V492.1h2.554v1.259Z" transform="translate(-381.3 -485.425)" fill="#91298c"/>
    <path id="Path_11148" data-name="Path 11148" d="M575.854,493.359H573.3V492.1h2.554Z" transform="translate(-561.252 -485.425)" fill="#91298c"/>
    <path id="Path_11149" data-name="Path 11149" d="M489.265,577.4v2.548H488V577.4Z" transform="translate(-481.331 -565.346)" fill="#91298c"/>
  </g>
</svg>
