<svg xmlns="http://www.w3.org/2000/svg" width="32.958" height="60.099" viewBox="0 0 32.958 60.099">
  <g id="Mobile_Packages" data-name="Mobile Packages" transform="translate(-511 -1361)">
    <g id="mobile" transform="translate(511 1361)">
      <path id="Path_8866" data-name="Path 8866" d="M436.5,409.6V384.834a4.869,4.869,0,0,1,5.259-5.234h22.465a4.867,4.867,0,0,1,5.234,5.21v49.679a4.867,4.867,0,0,1-5.234,5.21H441.686a4.86,4.86,0,0,1-5.186-5.186Zm25.058-28.063c-.267,1.333-.533,2.593-.8,3.853-.17.751-.46.994-1.212.994H446.339a.992.992,0,0,1-1.163-.945c-.242-1.163-.46-2.326-.727-3.49a.674.674,0,0,0-.46-.388c-.775-.048-1.527-.024-2.3-.024a2.945,2.945,0,0,0-3.247,3.272v49.606a2.946,2.946,0,0,0,3.3,3.3h22.343c2.278,0,3.393-1.115,3.393-3.368V384.3a2.866,2.866,0,0,0-2.714-2.738C463.714,381.49,462.672,381.539,461.558,381.539Z" transform="translate(-436.5 -379.6)" fill="rgba(145,41,140,0.75)"/>
      <path id="Path_8867" data-name="Path 8867" d="M467.619,387.505c1.115,0,2.157-.048,3.2,0a2.866,2.866,0,0,1,2.714,2.738,5.054,5.054,0,0,1,0,.606v49.437c0,2.254-1.115,3.368-3.393,3.368H447.8a2.956,2.956,0,0,1-3.3-3.3V390.753a2.945,2.945,0,0,1,3.247-3.272c.776,0,1.527-.024,2.3.024a.62.62,0,0,1,.46.388c.267,1.163.485,2.326.727,3.49a1,1,0,0,0,1.163.945h13.207c.751,0,1.042-.242,1.212-.994C467.11,390.1,467.352,388.838,467.619,387.505Zm-17.327,54.283h2.714c.751,0,1.187-.363,1.212-.969,0-.606-.436-.994-1.163-.994H447.6c-.751,0-1.187.388-1.163.994,0,.606.436.969,1.212.969Zm6.3-.024h0a2.335,2.335,0,0,0,.412,0,.984.984,0,1,0,.024-1.963c-.339,0-.679-.024-1.018,0a.94.94,0,0,0-.848.994.928.928,0,0,0,.848.945A1.545,1.545,0,0,0,456.593,441.764Z" transform="translate(-442.561 -385.567)" fill="rgba(145,41,140,0.75)"/>
      <path id="Path_8868" data-name="Path 8868" d="M456.277,605.463h-2.666c-.751,0-1.187-.363-1.212-.969,0-.63.436-.994,1.163-.994h5.453c.751,0,1.187.388,1.163.994,0,.606-.436.969-1.212.969Z" transform="translate(-448.547 -549.241)" fill="rgba(145,41,140,0.75)"/>
      <path id="Path_8869" data-name="Path 8869" d="M489.85,605.382a5.054,5.054,0,0,1-.606,0,.978.978,0,0,1,0-1.939,7.134,7.134,0,0,1,1.018,0,.955.955,0,0,1,1.042.994.97.97,0,0,1-1.066.969,2.359,2.359,0,0,1-.388-.024Z" transform="translate(-475.819 -549.184)" fill="rgba(145,41,140,0.75)"/>
    </g>
    <g id="otp" transform="translate(236.079 1006.622)">
      <path id="Path_8998" data-name="Path 8998" d="M449.1,384.331v-6.666h1.31V375.7a3.293,3.293,0,0,1,6.517-.695,3.7,3.7,0,0,1,.07.765c.009.624,0,1.24,0,1.882h1.3v6.675Zm6.578-6.675c0-.721.026-1.416-.009-2.111a1.97,1.97,0,0,0-1.838-1.838,1.949,1.949,0,0,0-2.067,1.618,10.965,10.965,0,0,0-.044,1.425c-.009.3,0,.6,0,.906Zm-2.612,2.7v1.293h1.293v-1.293Z" transform="translate(-161.771 5.64)" fill="#fff"/>
      <path id="Path_8999" data-name="Path 8999" d="M388.066,535.562c-.246-.255-.51-.528-.792-.809-.3.308-.572.589-.835.853l-.959-.959c.229-.22.475-.448.748-.7-.466-.308-.888-.6-1.328-.888.246-.369.484-.73.73-1.1.317.211.616.4.941.624V531.2H387.9v1.39c.334-.22.633-.422.959-.633.246.361.484.721.73,1.091-.431.29-.853.572-1.31.879.264.237.519.466.748.677C388.673,534.946,388.374,535.254,388.066,535.562Z" transform="translate(-103.218 -139.215)" fill="#fff"/>
      <path id="Path_9000" data-name="Path 9000" d="M448.16,533.853c.264.255.51.484.739.7l-.941.941q-.369-.4-.792-.844c-.3.317-.572.6-.835.871-.334-.334-.633-.633-.932-.941.229-.22.484-.449.756-.712-.484-.325-.906-.607-1.354-.906.237-.361.475-.721.73-1.1l.95.624V531.1H447.8v1.4c.343-.229.642-.422.967-.642.246.369.484.721.73,1.1C449.057,533.246,448.634,533.536,448.16,533.853Z" transform="translate(-157.849 -139.124)" fill="#fff"/>
      <path id="Path_9001" data-name="Path 9001" d="M506.4,532.49V531.1h1.31v1.39c.334-.22.633-.422.959-.633.246.361.484.721.73,1.1-.44.29-.862.58-1.328.888q.4.369.739.686c-.317.325-.624.624-.932.932-.246-.246-.51-.528-.8-.827-.3.317-.563.607-.818.879l-.967-.967c.229-.22.475-.449.748-.7-.466-.308-.9-.6-1.337-.888.246-.369.484-.73.73-1.1C505.755,532.067,506.055,532.27,506.4,532.49Z" transform="translate(-212.482 -139.124)" fill="#fff"/>
      <path id="Path_9002" data-name="Path 9002" d="M564.8,532.864c.246-.369.484-.721.73-1.1l.95.624V531H567.8v1.4c.343-.229.642-.431.967-.642.246.369.484.721.73,1.1-.431.29-.862.572-1.319.88.264.246.519.475.748.686l-.959.959c-.246-.255-.519-.528-.809-.827-.29.308-.563.589-.827.862-.334-.334-.633-.633-.932-.941.229-.22.475-.449.756-.712C565.679,533.454,565.249,533.163,564.8,532.864Z" transform="translate(-267.296 -139.032)" fill="#fff"/>
    </g>
  </g>
</svg>
